<?xml version="1.0" encoding="UTF-8" standalone="no"?>
<svg width="178px" height="30px" viewBox="0 0 178 30" version="1.1" xmlns="http://www.w3.org/2000/svg" xmlns:xlink="http://www.w3.org/1999/xlink" xmlns:sketch="http://www.bohemiancoding.com/sketch/ns">
    <!-- Generator: Sketch 3.4 (15575) - http://www.bohemiancoding.com/sketch -->
    <title>XMLID_595_ + XMLID_563_</title>
    <desc>Created with Sketch.</desc>
    <defs></defs>
    <g id="Page-1" stroke="none" stroke-width="1" fill="none" fill-rule="evenodd" sketch:type="MSPage">
        <g id="XMLID_595_-+-XMLID_563_" sketch:type="MSLayerGroup" fill="#FFFFFF">
            <g id="XMLID_595_" transform="translate(0.492600, 0.104234)" sketch:type="MSShapeGroup">
                <path d="M8.4,17.5 L0.4,17.5 L0.4,0.7 L8.2,0.7 C11.6,0.7 13.7,2.4 13.7,5 L13.7,5 C13.7,6.9 12.7,8 11.5,8.6 C13.4,9.3 14.6,10.5 14.6,12.7 L14.6,12.7 C14.7,15.9 12.2,17.5 8.4,17.5 L8.4,17.5 Z M10.1,5.6 C10.1,4.5 9.2,3.9 7.7,3.9 L4,3.9 L4,7.5 L7.4,7.5 C9,7.4 10.1,6.9 10.1,5.6 L10.1,5.6 L10.1,5.6 Z M11,12.3 C11,11.2 10.2,10.5 8.3,10.5 L4,10.5 L4,14.2 L8.4,14.2 C10,14.2 11,13.6 11,12.3 L11,12.3 L11,12.3 Z" id="XMLID_596_"></path>
                <path d="M33.8,17.5 L30.2,12.1 L27.3,12.1 L27.3,17.5 L23.6,17.5 L23.6,0.7 L31.3,0.7 C35.3,0.7 37.6,2.8 37.6,6.2 L37.6,6.2 C37.6,8.9 36.1,10.6 34,11.4 L38.1,17.4 L33.8,17.4 L33.8,17.5 Z M33.9,6.4 C33.9,4.8 32.8,4 31,4 L27.3,4 L27.3,8.8 L31,8.8 C32.9,8.8 33.9,7.9 33.9,6.4 L33.9,6.4 L33.9,6.4 Z" id="XMLID_600_"></path>
                <path d="M47,17.5 L47,0.7 L50.7,0.7 L50.7,17.5 L47,17.5 L47,17.5 Z" id="XMLID_603_"></path>
                <path d="M68.4,4.1 L68.4,17.5 L64.7,17.5 L64.7,4.1 L59.6,4.1 L59.6,0.7 L73.5,0.7 L73.5,4.1 L68.4,4.1 L68.4,4.1 Z" id="XMLID_605_"></path>
                <path d="M82.2,17.5 L82.2,0.7 L94.9,0.7 L94.9,4 L85.9,4 L85.9,7.4 L93.8,7.4 L93.8,10.7 L85.9,10.7 L85.9,14.2 L95,14.2 L95,17.5 L82.2,17.5 L82.2,17.5 Z" id="XMLID_607_"></path>
                <path d="M104.2,17.5 L104.2,0.7 L107.9,0.7 L107.9,14.1 L116.3,14.1 L116.3,17.5 L104.2,17.5 L104.2,17.5 Z" id="XMLID_609_"></path>
                <path d="M125.1,17.5 L125.1,0.7 L128.8,0.7 L128.8,17.5 L125.1,17.5 L125.1,17.5 Z" id="XMLID_611_"></path>
                <path d="M150.6,17.5 L142.5,6.8 L142.5,17.5 L138.9,17.5 L138.9,0.7 L142.3,0.7 L150.2,11 L150.2,0.7 L153.8,0.7 L153.8,17.5 L150.6,17.5 L150.6,17.5 Z" id="XMLID_613_"></path>
                <path d="M163.7,17.5 L163.7,0.7 L176.4,0.7 L176.4,4 L167.4,4 L167.4,7.4 L175.3,7.4 L175.3,10.7 L167.4,10.7 L167.4,14.2 L176.5,14.2 L176.5,17.5 L163.7,17.5 L163.7,17.5 Z" id="XMLID_615_"></path>
            </g>
            <g id="XMLID_563_" transform="translate(104.492600, 23.104234)" sketch:type="MSShapeGroup">
                <path d="M1.9,1.3 C1.3,1.3 1.1,1.6 1.1,2.3 L1.1,2.7 L2.5,2.7 L2.5,3.1 L1,3.1 L1,6.8 L0.6,6.8 L0.6,3.1 L0,3.1 L0,2.7 L0.6,2.7 L0.6,2.3 C0.6,1.4 1,0.9 1.8,0.9 C2,0.9 2.2,0.9 2.4,1 L2.4,1.4 C2.2,1.3 2.1,1.3 1.9,1.3 L1.9,1.3 Z" id="XMLID_564_"></path>
                <path d="M5.5,3.1 C4.6,3.1 3.7,3.8 3.7,5.1 L3.7,6.8 L3.3,6.8 L3.3,2.7 L3.7,2.7 L3.7,3.9 C4,3.2 4.7,2.6 5.5,2.7 L5.5,3.1 L5.5,3.1 L5.5,3.1 Z" id="XMLID_566_"></path>
                <path d="M8.3,6.9 C7.1,6.9 6.2,5.9 6.2,4.8 L6.2,4.8 C6.2,3.7 7.1,2.7 8.3,2.7 C9.5,2.7 10.4,3.7 10.4,4.8 L10.4,4.8 C10.4,5.9 9.5,6.9 8.3,6.9 L8.3,6.9 Z M10,4.78095196 C10,3.82592526 9.3,3.06190391 8.3,3.06190391 C7.3,3.06190391 6.6,3.82592526 6.6,4.78095196 L6.6,4.78095196 C6.6,5.73597865 7.3,6.5 8.3,6.5 C9.3,6.5 10,5.73597865 10,4.78095196 L10,4.78095196 L10,4.78095196 Z" id="XMLID_568_"></path>
                <path d="M17.4,6.8 L17.4,4.4 C17.4,3.5 16.9,3 16.2,3 C15.5,3 14.9,3.5 14.9,4.4 L14.9,6.8 L14.5,6.8 L14.5,4.4 C14.5,3.6 14,3 13.3,3 C12.6,3 12,3.6 12,4.5 L12,6.9 L11.6,6.9 L11.6,2.8 L12,2.8 L12,3.5 C12.3,3.1 12.6,2.7 13.4,2.7 C14.1,2.7 14.6,3.1 14.8,3.6 C15.1,3.1 15.5,2.7 16.3,2.7 C17.3,2.7 17.9,3.4 17.9,4.4 L17.9,6.9 L17.4,6.9 L17.4,6.8 Z" id="XMLID_571_"></path>
                <path d="M23.5,6.9 C22.7,6.9 21.8,6.6 21.1,6 L21.8,5.1 C22.3,5.5 22.8,5.8 23.5,5.8 C24,5.8 24.3,5.6 24.3,5.3 L24.3,5.3 C24.3,5 24.1,4.8 23.2,4.6 C22.1,4.3 21.3,4 21.3,2.9 L21.3,2.9 C21.3,1.9 22.1,1.2 23.3,1.2 C24.1,1.2 24.8,1.5 25.4,1.9 L24.8,2.8 C24.3,2.5 23.8,2.2 23.3,2.2 C22.8,2.2 22.6,2.4 22.6,2.7 L22.6,2.7 C22.6,3.1 22.8,3.2 23.8,3.4 C24.9,3.7 25.6,4.1 25.6,5.1 L25.6,5.1 C25.6,6.2 24.7,6.9 23.5,6.9 L23.5,6.9 Z" id="XMLID_573_"></path>
                <path d="M29,6.9 C27.5,6.9 26.6,6.1 26.6,4.4 L26.6,1.2 L27.8,1.2 L27.8,4.4 C27.8,5.3 28.3,5.8 29,5.8 C29.7,5.8 30.2,5.3 30.2,4.5 L30.2,1.3 L31.4,1.3 L31.4,4.5 C31.5,6 30.5,6.9 29,6.9 L29,6.9 Z" id="XMLID_575_"></path>
                <path d="M34.9,5.1 L34,5.1 L34,6.8 L32.8,6.8 L32.8,1.2 L35.1,1.2 C36.4,1.2 37.2,2 37.2,3.1 L37.2,3.1 C37.1,4.4 36.1,5.1 34.9,5.1 L34.9,5.1 Z M35.9,3.1 C35.9,2.5 35.5,2.3 34.9,2.3 L33.9,2.3 L33.9,4 L34.9,4 C35.5,4 35.9,3.6 35.9,3.1 L35.9,3.1 L35.9,3.1 Z" id="XMLID_577_"></path>
                <path d="M38.1,6.8 L38.1,1.2 L42.3,1.2 L42.3,2.3 L39.3,2.3 L39.3,3.4 L41.9,3.4 L41.9,4.5 L39.3,4.5 L39.3,5.7 L42.3,5.7 L42.3,6.8 L38.1,6.8 L38.1,6.8 Z" id="XMLID_580_"></path>
                <path d="M46.8,6.8 L45.6,5 L44.6,5 L44.6,6.8 L43.4,6.8 L43.4,1.2 L46,1.2 C47.3,1.2 48.1,1.9 48.1,3 L48.1,3 C48.1,3.9 47.6,4.5 46.9,4.7 L48.3,6.7 L46.8,6.7 L46.8,6.8 Z M46.8,3.1 C46.8,2.6 46.4,2.3 45.8,2.3 L44.6,2.3 L44.6,3.9 L45.8,3.9 C46.5,3.9 46.8,3.6 46.8,3.1 L46.8,3.1 L46.8,3.1 Z" id="XMLID_582_"></path>
                <path d="M53.1,6.8 L50.4,3.2 L50.4,6.8 L49.2,6.8 L49.2,1.2 L50.3,1.2 L52.9,4.6 L52.9,1.2 L54.1,1.2 L54.1,6.8 L53.1,6.8 L53.1,6.8 Z" id="XMLID_585_"></path>
                <path d="M58.2,6.9 C56.5,6.9 55.2,5.6 55.2,4 L55.2,4 C55.2,2.4 56.5,1.1 58.2,1.1 C59.9,1.1 61.2,2.4 61.2,4 L61.2,4 C61.2,5.6 60,6.9 58.2,6.9 L58.2,6.9 Z M59.9,4 C59.9,3 59.2,2.2 58.2,2.2 C57.2,2.2 56.5,3 56.5,3.9 L56.5,3.9 C56.5,4.9 57.2,5.7 58.2,5.7 C59.2,5.7 59.9,5 59.9,4 L59.9,4 L59.9,4 Z" id="XMLID_587_"></path>
                <path d="M65.2,6.8 L64.1,6.8 L61.8,1.2 L63.2,1.2 L64.7,5.1 L66.2,1.2 L67.5,1.2 L65.2,6.8 L65.2,6.8 Z" id="XMLID_590_"></path>
                <path d="M71.7,6.8 L71.2,5.5 L68.8,5.5 L68.3,6.8 L67,6.8 L69.4,1.2 L70.5,1.2 L72.9,6.8 L71.7,6.8 L71.7,6.8 Z M70,2.6 L69.3,4.4 L70.8,4.4 L70,2.6 L70,2.6 Z" id="XMLID_592_"></path>
            </g>
        </g>
    </g>
</svg>